<?xml version="1.0" encoding="UTF-8"?>
<svg width="16px" height="16px" viewBox="0 0 16 16" version="1.1" xmlns="http://www.w3.org/2000/svg" xmlns:xlink="http://www.w3.org/1999/xlink">
    <title>toolbarButton-zoomIn</title>
    <g id="toolbarButton-zoomIn" stroke="none" stroke-width="1" fill="none" fill-rule="evenodd">
        <g transform="translate(1.000000, 1.000000)" fill="#000000" fill-rule="nonzero">
            <path d="M0,5.66244298 C0,8.78459199 2.56499488,11.324886 5.71750256,11.324886 C6.96417605,11.324886 8.10337769,10.9275215 9.0419652,10.260517 L12.567042,13.758743 C12.7318321,13.9219463 12.9467758,14 13.1760491,14 C13.6632549,14 14,13.6381145 14,13.1626964 C14,12.935631 13.9140225,12.729853 13.7635619,12.5808414 L10.2599795,9.0897111 C10.9979529,8.13887481 11.4350051,6.95387734 11.4350051,5.66244298 C11.4350051,2.54029397 8.87001024,0 5.71750256,0 C2.56499488,0 0,2.54029397 0,5.66244298 Z M1.22517912,5.66244298 C1.22517912,3.20729853 3.23848516,1.21338064 5.71750256,1.21338064 C8.19651996,1.21338064 10.209826,3.20729853 10.209826,5.66244298 C10.209826,8.11758743 8.19651996,10.1115053 5.71750256,10.1115053 C3.23848516,10.1115053 1.22517912,8.11758743 1.22517912,5.66244298 Z M3.3531218,5.66244298 C3.3531218,5.9533705 3.58239509,6.18043588 3.87615148,6.18043588 L5.19447288,6.18043588 L5.19447288,7.48606183 C5.19447288,7.77698936 5.42374616,8.00405474 5.71750256,8.00405474 C6.01125896,8.00405474 6.24769703,7.77698936 6.24769703,7.48606183 L6.24769703,6.18043588 L7.55885363,6.18043588 C7.85261003,6.18043588 8.08188332,5.9533705 8.08188332,5.66244298 C8.08188332,5.37151546 7.85261003,5.13735428 7.55885363,5.13735428 L6.24769703,5.13735428 L6.24769703,3.83882413 C6.24769703,3.5478966 6.01125896,3.32083122 5.71750256,3.32083122 C5.42374616,3.32083122 5.19447288,3.5478966 5.19447288,3.83882413 L5.19447288,5.13735428 L3.87615148,5.13735428 C3.58239509,5.13735428 3.3531218,5.37151546 3.3531218,5.66244298 Z"></path>
        </g>
    </g>
</svg>