<?xml version="1.0" encoding="UTF-8"?>
<svg width="16px" height="16px" viewBox="0 0 16 16" version="1.1" xmlns="http://www.w3.org/2000/svg" xmlns:xlink="http://www.w3.org/1999/xlink">
    <title>toolbarButton-print</title>
    <g id="toolbarButton-print" stroke="none" stroke-width="1" fill="none" fill-rule="evenodd">
        <g id="􀎚" transform="translate(0.000000, 1.000000)" fill="#000000" fill-rule="nonzero">
            <path d="M1.97875166,12.0696379 L2.67596282,12.0696379 L2.67596282,12.7585887 C2.67596282,13.6230269 3.10092961,14 3.94422311,14 L11.0557769,14 C11.8990704,14 12.3240372,13.6230269 12.3240372,12.7585887 L12.3240372,12.0696379 L13.0278884,12.0696379 C14.3160691,12.0696379 15,11.4326834 15,10.1652739 L15,4.08170845 C15,2.82079851 14.3160691,2.17734448 13.0278884,2.17734448 L12.3705179,2.17734448 L12.3705179,1.83286908 C12.3705179,0.56545961 11.7264276,0 10.4913679,0 L4.50863214,0 C3.33997344,0 2.62948207,0.56545961 2.62948207,1.83286908 L2.62948207,2.17734448 L1.97875166,2.17734448 C0.750332005,2.17734448 0,2.82079851 0,4.08170845 L0,10.1652739 C0,11.4326834 0.683930943,12.0696379 1.97875166,12.0696379 Z M3.65869854,1.76137419 C3.65869854,1.21541318 3.94422311,0.948932219 4.49535193,0.948932219 L10.5046481,0.948932219 C11.062417,0.948932219 11.3413015,1.21541318 11.3413015,1.76137419 L11.3413015,2.17734448 L3.65869854,2.17734448 L3.65869854,1.76137419 Z M11.0557769,6.21355617 L3.94422311,6.21355617 C3.14077025,6.21355617 2.67596282,6.59052925 2.67596282,7.4549675 L2.67596282,11.088208 L1.96547145,11.088208 C1.37450199,11.088208 1.07569721,10.7892293 1.07569721,10.2172702 L1.07569721,4.02971216 C1.07569721,3.45775302 1.37450199,3.15877437 1.96547145,3.15877437 L13.0411687,3.15877437 C13.625498,3.15877437 13.9309429,3.45775302 13.9309429,4.02971216 L13.9309429,10.2172702 C13.9309429,10.7892293 13.625498,11.088208 13.0411687,11.088208 L12.3240372,11.088208 L12.3240372,7.4549675 C12.3240372,6.59052925 11.8990704,6.21355617 11.0557769,6.21355617 Z M10.7171315,4.69916435 C10.7171315,5.15413185 11.1022576,5.51160631 11.5537849,5.51160631 C11.998672,5.51160631 12.377158,5.15413185 12.377158,4.69916435 C12.377158,4.27019499 11.998672,3.89322191 11.5537849,3.89322191 C11.1022576,3.89322191 10.7171315,4.27019499 10.7171315,4.69916435 Z M4.27622842,13.0185701 C3.92430279,13.0185701 3.74501992,12.8495822 3.74501992,12.4986072 L3.74501992,7.7084494 C3.74501992,7.35747447 3.92430279,7.19498607 4.27622842,7.19498607 L10.7304117,7.19498607 C11.0889774,7.19498607 11.2549801,7.35747447 11.2549801,7.7084494 L11.2549801,12.4986072 C11.2549801,12.8495822 11.0889774,13.0185701 10.7304117,13.0185701 L4.27622842,13.0185701 Z M5.19920319,9.37233055 L9.82071713,9.37233055 C10.0531208,9.37233055 10.2257636,9.19684308 10.2257636,8.9628598 C10.2257636,8.74187558 10.0531208,8.57288765 9.82071713,8.57288765 L5.19920319,8.57288765 C4.96015936,8.57288765 4.78087649,8.74187558 4.78087649,8.9628598 C4.78087649,9.19684308 4.96015936,9.37233055 5.19920319,9.37233055 Z M5.19920319,11.6406685 L9.82071713,11.6406685 C10.0531208,11.6406685 10.2257636,11.4651811 10.2257636,11.2441968 C10.2257636,11.0167131 10.0531208,10.8412256 9.82071713,10.8412256 L5.19920319,10.8412256 C4.96015936,10.8412256 4.78087649,11.0167131 4.78087649,11.2441968 C4.78087649,11.4651811 4.96015936,11.6406685 5.19920319,11.6406685 Z" id="Shape"></path>
        </g>
    </g>
</svg>