<?xml version="1.0" encoding="UTF-8"?>
<svg width="16px" height="16px" viewBox="0 0 16 16" version="1.1" xmlns="http://www.w3.org/2000/svg" xmlns:xlink="http://www.w3.org/1999/xlink">
    <title>toolbarButton-sidebarToggle</title>
    <g id="toolbarButton-sidebarToggle" stroke="none" stroke-width="1" fill="none" fill-rule="evenodd">
        <g id="ô€š" transform="translate(0.000000, 1.000000)" fill="#000000" fill-rule="nonzero">
            <path d="M2.08203125,13.0344095 L12.9555664,13.0344095 C14.3266602,13.0344095 15.0375977,12.323472 15.0375977,10.9714212 L15.0375977,2.06298828 C15.0375977,0.704589844 14.3266602,0 12.9555664,0 L2.08203125,0 C0.7109375,0 0,0.704589844 0,2.06298828 L0,10.9714212 C0,12.3298197 0.7109375,13.0344095 2.08203125,13.0344095 Z M2.15820312,11.6786137 C1.56787109,11.6786137 1.24414062,11.3675785 1.24414062,10.7518559 L1.24414062,2.16455078 C1.24414062,1.54882813 1.56787109,1.24414062 2.15820313,1.24414062 L5.04638672,1.24414062 L5.04638672,11.6786137 L2.15820312,11.6786137 Z M12.8793945,1.24414062 C13.4633789,1.24414062 13.793457,1.54882813 13.793457,2.16455078 L13.793457,10.6964903 C13.793457,11.3122129 13.4633789,11.6232481 12.8793945,11.6232481 L6.22705078,11.6232481 L6.22705078,1.24414062 L12.8793945,1.24414062 Z M3.80224609,3.56738281 C4.02441406,3.56738281 4.21484375,3.37695312 4.21484375,3.16113281 C4.21484375,2.9453125 4.02441406,2.76123047 3.80224609,2.76123047 L2.50097656,2.76123047 C2.27246094,2.76123047 2.08203125,2.9453125 2.08203125,3.16113281 C2.08203125,3.37695312 2.27246094,3.56738281 2.50097656,3.56738281 L3.80224609,3.56738281 Z M3.80224609,5.26855469 C4.02441406,5.26855469 4.21484375,5.078125 4.21484375,4.86230469 C4.21484375,4.64648438 4.02441406,4.46240234 3.80224609,4.46240234 L2.50097656,4.46240234 C2.27246094,4.46240234 2.08203125,4.64648438 2.08203125,4.86230469 C2.08203125,5.078125 2.27246094,5.26855469 2.50097656,5.26855469 L3.80224609,5.26855469 Z M3.80224609,6.96337891 C4.02441406,6.96337891 4.21484375,6.77929688 4.21484375,6.56347656 C4.21484375,6.34765625 4.02441406,6.16357422 3.80224609,6.16357422 L2.50097656,6.16357422 C2.27246094,6.16357422 2.08203125,6.34765625 2.08203125,6.56347656 C2.08203125,6.77929688 2.27246094,6.96337891 2.50097656,6.96337891 L3.80224609,6.96337891 Z" id="Shape"></path>
        </g>
    </g>
</svg>