<?xml version="1.0" encoding="UTF-8"?>
<svg width="16px" height="16px" viewBox="0 0 16 16" version="1.1" xmlns="http://www.w3.org/2000/svg" xmlns:xlink="http://www.w3.org/1999/xlink">
    <title>toolbarButton-download</title>
    <g id="toolbarButton-download" stroke="none" stroke-width="1" fill="none" fill-rule="evenodd">
        <g id="􀈽" transform="translate(3.000000, 1.000000)" fill="#000000" fill-rule="nonzero">
            <path d="M2.0845481,14 L8.9154519,14 C10.2880466,14 11,13.2692841 11,11.8789838 L11,6.01385681 C11,5.11501155 10.8845481,4.70115473 10.3265306,4.13210162 L6.95918367,0.678983834 C6.42040816,0.129330254 5.97784257,0 5.17609329,0 L2.0845481,0 C0.711953353,0 0,0.730715935 0,2.12101617 L0,11.8789838 C0,13.2757506 0.711953353,14 2.0845481,14 Z M2.18717201,12.7325635 C1.56501458,12.7325635 1.25714286,12.4027714 1.25714286,11.8013857 L1.25714286,2.19861432 C1.25714286,1.60369515 1.56501458,1.26743649 2.18717201,1.26743649 L4.91953353,1.26743649 L4.91953353,4.81108545 C4.91953353,5.73579677 5.37492711,6.18198614 6.28571429,6.18198614 L9.74285714,6.18198614 L9.74285714,11.8013857 C9.74285714,12.4027714 9.42857143,12.7325635 8.80641399,12.7325635 L2.18717201,12.7325635 Z M6.40116618,5.06974596 C6.13819242,5.06974596 6.02915452,4.95334873 6.02915452,4.68822171 L6.02915452,1.44203233 L9.5696793,5.06974596 L6.40116618,5.06974596 Z M6.06122449,7.43648961 C6.06122449,7.13256351 5.80466472,6.89976905 5.496793,6.89976905 C5.19533528,6.89976905 4.93877551,7.13256351 4.93877551,7.43648961 L4.93877551,9.42817552 L4.99008746,10.430485 L4.49620991,9.91316397 L4.00233236,9.40230947 C3.90612245,9.29884527 3.76501458,9.23418014 3.6303207,9.23418014 C3.33527697,9.23418014 3.12361516,9.44110855 3.12361516,9.7256351 C3.12361516,9.88729792 3.18134111,10.0101617 3.303207,10.1136259 L5.07346939,11.7496536 C5.22099125,11.8854503 5.34285714,11.9501155 5.496793,11.9501155 C5.65714286,11.9501155 5.77900875,11.8854503 5.92653061,11.7496536 L7.696793,10.1136259 C7.81865889,10.0101617 7.87638484,9.88729792 7.87638484,9.7256351 C7.87638484,9.44110855 7.65830904,9.23418014 7.3696793,9.23418014 C7.23498542,9.23418014 7.08746356,9.29884527 6.99766764,9.40230947 L6.50379009,9.91316397 L6.00991254,10.430485 L6.06122449,9.42817552 L6.06122449,7.43648961 Z" id="Shape"></path>
        </g>
    </g>
</svg>