<?xml version="1.0" encoding="UTF-8"?>
<svg width="16px" height="16px" viewBox="0 0 16 16" version="1.1" xmlns="http://www.w3.org/2000/svg" xmlns:xlink="http://www.w3.org/1999/xlink">
    <title>toolbarButton-viewLayers</title>
    <g id="toolbarButton-viewLayers" stroke="none" stroke-width="1" fill="none" fill-rule="evenodd">
        <g id="􀯭" transform="translate(1.000000, 1.000000)" fill="#000000" fill-rule="nonzero">
            <path d="M7.86986301,13.7250958 L13.2260274,10.6743295 C13.7808219,10.3591954 14,10.1178161 14,9.74904215 C14,9.3802682 13.7808219,9.13888889 13.2260274,8.81704981 L10.0273973,7 L13.2260274,5.18295019 C13.7808219,4.86111111 14,4.6197318 14,4.25095785 C14,3.88218391 13.7808219,3.6408046 13.2260274,3.3256705 L7.86986301,0.274904215 C7.54109589,0.087164751 7.2739726,0 7,0 C6.71917808,0 6.45890411,0.087164751 6.13013699,0.274904215 L0.767123288,3.3256705 C0.212328767,3.6408046 0,3.88218391 0,4.25095785 C0,4.6197318 0.212328767,4.86111111 0.767123288,5.18295019 L3.97260274,7 L0.767123288,8.81704981 C0.212328767,9.13888889 0,9.3802682 0,9.74904215 C0,10.1178161 0.212328767,10.3591954 0.767123288,10.6743295 L6.13013699,13.7250958 C6.45890411,13.9128352 6.71917808,14 7,14 C7.2739726,14 7.54109589,13.9128352 7.86986301,13.7250958 Z M7,7.32854406 C6.90410959,7.32854406 6.80821918,7.30172414 6.69178082,7.23467433 L1.44738197,4.31800766 C1.41998471,4.3045977 1.39943677,4.28448276 1.39943677,4.25095785 C1.39943677,4.21743295 1.41998471,4.20402299 1.44738197,4.18390805 L6.69178082,1.23709254 C6.80821918,1.17674771 6.90410959,1.14322281 7,1.14322281 C7.09589041,1.14322281 7.19178082,1.17674771 7.30136986,1.23709254 L12.5926514,4.18390805 C12.6268979,4.20402299 12.6474459,4.21743295 12.6474459,4.25095785 C12.6474459,4.28448276 12.6268979,4.3045977 12.5926514,4.31800766 L7.30136986,7.23467433 C7.19178082,7.30172414 7.09589041,7.32854406 7,7.32854406 Z M7.00800177,8.44480478 C7.28197437,8.44480478 7.54909766,8.35764003 7.87786479,8.16990056 L8.89156342,7.59327221 L12.6024227,9.68199234 C12.6366693,9.6954023 12.6572172,9.71551724 12.6572172,9.74904215 C12.6572172,9.78256705 12.6366693,9.79597701 12.6024227,9.81609195 L7.30136986,12.7758317 C7.19178082,12.8361765 7.09589041,12.8697014 7,12.8697014 C6.90410959,12.8697014 6.80821918,12.8361765 6.69178082,12.7758317 L1.44195938,9.81609195 C1.41456212,9.79597701 1.39401418,9.78256705 1.39401418,9.74904215 C1.39401418,9.71551724 1.41456212,9.6954023 1.44195938,9.68199234 L5.11759081,7.59327221 L6.13813876,8.16990056 C6.46690588,8.35764003 6.72717985,8.44480478 7.00800177,8.44480478 Z" id="Shape"></path>
        </g>
    </g>
</svg>