<?xml version="1.0" encoding="UTF-8"?>
<svg width="16px" height="16px" viewBox="0 0 16 16" version="1.1" xmlns="http://www.w3.org/2000/svg" xmlns:xlink="http://www.w3.org/1999/xlink">
    <title>toolbarButton-viewAttachments</title>
    <g id="toolbarButton-viewAttachments" stroke="none" stroke-width="1" fill="none" fill-rule="evenodd">
        <g id="􀉢-copy" transform="translate(2.000000, 1.000000)" fill="#000000" fill-rule="nonzero">
            <path d="M10.1468496,7.26723801 L5.59228828,11.9998229 C4.43204774,13.2118263 2.8768317,13.0899847 1.88322145,12.0511246 C0.877268213,11.0122645 0.766181353,9.40267265 1.93259339,8.1906692 L8.15962905,1.72023811 C8.8384932,1.01483928 9.85678942,0.886584951 10.5171391,1.57915835 C11.1836602,2.27173175 11.0602304,3.31700456 10.3813663,4.0288161 L4.27158894,10.3838183 C3.99387179,10.6723905 3.6667827,10.5890252 3.47546644,10.3966437 C3.29032168,10.1914368 3.21009228,9.85797553 3.48780943,9.56299056 L7.74613907,5.13821608 C7.9621413,4.913771 7.97448428,4.58672245 7.77082504,4.36869009 C7.5609943,4.16348315 7.2462482,4.16989587 7.03024597,4.39434095 L2.74723036,8.83835358 C2.09305218,9.53092698 2.11773815,10.5826125 2.70402991,11.1918206 C3.33969361,11.8523304 4.3024464,11.839505 4.96896757,11.1469316 L11.1096023,4.76627852 C12.3007003,3.52862421 12.2574999,1.89979418 11.2145177,0.809632352 C10.19005,-0.248465894 8.597805,-0.325418493 7.40053551,0.912235818 L1.13647089,7.43396864 C-0.424916649,9.05638595 -0.320001281,11.3842021 1.09944193,12.8591269 C2.51888515,14.327639 4.76530832,14.4430679 6.32669586,12.8270633 L10.9121146,8.06241487 C11.1219453,7.85079522 11.1157738,7.45961951 10.9059431,7.24799986 C10.7022839,7.02355477 10.3628518,7.05561836 10.1468496,7.26723801 Z" id="Path"></path>
        </g>
    </g>
</svg>