<?xml version="1.0" encoding="UTF-8"?>
<svg width="16px" height="16px" viewBox="0 0 16 16" version="1.1" xmlns="http://www.w3.org/2000/svg" xmlns:xlink="http://www.w3.org/1999/xlink">
    <title>toolbarButton-search</title>
    <g id="toolbarButton-search" stroke="none" stroke-width="1" fill="none" fill-rule="evenodd">
        <g id="􀊫" transform="translate(1.000000, 1.000000)" fill="#000000" fill-rule="nonzero">
            <path d="M0,5.25798277 C0,8.15712114 2.38178096,10.5159655 5.30910952,10.5159655 C6.4667349,10.5159655 7.52456499,10.1469843 8.39611054,9.52762291 L11.6693961,12.7759757 C11.8224156,12.9275215 12.0220061,13 12.2349028,13 C12.6873081,13 13,12.6639635 13,12.2225038 C13,12.0116574 12.9201638,11.8205778 12.7804504,11.6822098 L9.52712385,8.44044602 C10.2123849,7.55752661 10.618219,6.45717182 10.618219,5.25798277 C10.618219,2.3588444 8.23643808,0 5.30910952,0 C2.38178096,0 0,2.3588444 0,5.25798277 Z M1.13766633,5.25798277 C1.13766633,2.97820578 3.00716479,1.12671059 5.30910952,1.12671059 C7.61105425,1.12671059 9.48055271,2.97820578 9.48055271,5.25798277 C9.48055271,7.53775976 7.61105425,9.38925494 5.30910952,9.38925494 C3.00716479,9.38925494 1.13766633,7.53775976 1.13766633,5.25798277 Z" id="Shape"></path>
        </g>
    </g>
</svg>