<?xml version="1.0" encoding="UTF-8"?>
<svg width="16px" height="16px" viewBox="0 0 16 16" version="1.1" xmlns="http://www.w3.org/2000/svg" xmlns:xlink="http://www.w3.org/1999/xlink">
    <title>toolbarButton-editorInk</title>
    <g id="toolbarButton-editorInk" stroke="none" stroke-width="1" fill="none" fill-rule="evenodd">
        <g id="􀤑" transform="translate(1.000000, 2.000000)" fill="#000000" fill-rule="nonzero">
            <path d="M0.269123803,8.06477759 C0.587827701,8.39069905 1.23136442,8.47217942 1.72780703,8.01463583 C1.8932879,7.86421054 2.23650748,7.48814731 2.89230204,6.81750122 C6.02418073,3.57082203 8.08962714,1.43979707 8.53090946,1.8471989 C8.88638688,2.16685265 7.80156785,3.73378276 6.7719091,5.1878939 C4.84129895,7.93942318 3.30293975,9.8448102 4.44291908,11.0106062 C5.35612832,11.9444966 6.77803802,11.0043385 8.96606286,9.04254198 C10.197976,7.93315546 11.1234431,7.03687144 11.3931156,7.31891886 C11.59537,7.51948591 11.282795,8.05224215 10.823126,8.86704581 C10.2286206,9.9074874 9.48702115,11.0231416 10.197976,11.7501972 C10.6882897,12.2453471 11.6382725,12.0322446 12.8088964,10.8601809 C13.0172797,10.6470784 13.0663111,10.408905 12.9008302,10.2396766 C12.7414783,10.0829836 12.5208371,10.1080545 12.3553562,10.2647475 C11.5034362,11.1171575 10.9457044,11.3866694 10.8047392,11.2362441 C10.6392583,11.0732834 10.9395755,10.5154563 11.5647254,9.39353433 C12.3553562,7.9770295 12.7782518,7.0870132 12.1101994,6.42263483 C11.2153769,5.53261853 10.1550736,6.48531204 8.1938188,8.24654148 C6.34901354,9.9074874 5.80966849,10.1769994 5.57676948,9.94509373 C5.26419451,9.61917226 5.74225035,9.04254198 7.80769677,6.09044565 C9.73830692,3.32638093 10.8598995,1.60275781 9.81185397,0.568583931 C8.38381535,-0.854188611 6.54513902,0.26773335 1.50716587,5.36339008 C0.839113466,6.04030389 0.4713782,6.39756395 0.324284093,6.56052468 C-0.147642832,7.09328092 -0.0495800947,7.73885613 0.269123803,8.06477759 Z" id="Path"></path>
        </g>
    </g>
</svg>