<?xml version="1.0" encoding="UTF-8"?>
<svg width="16px" height="16px" viewBox="0 0 16 16" version="1.1" xmlns="http://www.w3.org/2000/svg" xmlns:xlink="http://www.w3.org/1999/xlink">
    <title>toolbarButton-viewOutline</title>
    <g id="toolbarButton-viewOutline" stroke="none" stroke-width="1" fill="none" fill-rule="evenodd">
        <path d="M2.5,2.9 C2.83137085,2.9 3.1,3.16862915 3.1,3.5 C3.1,3.79823376 2.88241039,4.04564675 2.59732312,4.09214701 L2.5,4.1 L1.5,4.1 C1.16862915,4.1 0.9,3.83137085 0.9,3.5 C0.9,3.20176624 1.11758961,2.95435325 1.40267688,2.90785299 L1.5,2.9 L2.5,2.9 Z" id="Path-5" fill="#000000" fill-rule="nonzero"></path>
        <path d="M2.5,7.9 C2.83137085,7.9 3.1,8.16862915 3.1,8.5 C3.1,8.79823376 2.88241039,9.04564675 2.59732312,9.09214701 L2.5,9.1 L1.5,9.1 C1.16862915,9.1 0.9,8.83137085 0.9,8.5 C0.9,8.20176624 1.11758961,7.95435325 1.40267688,7.90785299 L1.5,7.9 L2.5,7.9 Z" id="Path-5-Copy-5" fill="#000000" fill-rule="nonzero"></path>
        <path d="M2.5,12.9 C2.83137085,12.9 3.1,13.1686292 3.1,13.5 C3.1,13.7982338 2.88241039,14.0456468 2.59732312,14.092147 L2.5,14.1 L1.5,14.1 C1.16862915,14.1 0.9,13.8313708 0.9,13.5 C0.9,13.2017662 1.11758961,12.9543532 1.40267688,12.907853 L1.5,12.9 L2.5,12.9 Z" id="Path-5-Copy-6" fill="#000000" fill-rule="nonzero"></path>
        <path d="M13.4485594,7.9 C13.7799302,7.9 14.0485594,8.16862915 14.0485594,8.5 C14.0485594,8.79823376 13.8309697,9.04564675 13.5458825,9.09214701 L13.4485594,9.1 L5.86008453,9.1 C5.52871368,9.1 5.26008453,8.83137085 5.26008453,8.5 C5.26008453,8.20176624 5.47767415,7.95435325 5.76276142,7.90785299 L5.86008453,7.9 L13.4485594,7.9 Z" id="Path-5-Copy-2" fill="#000000" fill-rule="nonzero"></path>
        <path d="M13.4485594,2.9 C13.7799302,2.9 14.0485594,3.16862915 14.0485594,3.5 C14.0485594,3.79823376 13.8309697,4.04564675 13.5458825,4.09214701 L13.4485594,4.1 L5.86008453,4.1 C5.52871368,4.1 5.26008453,3.83137085 5.26008453,3.5 C5.26008453,3.20176624 5.47767415,2.95435325 5.76276142,2.90785299 L5.86008453,2.9 L13.4485594,2.9 Z" id="Path-5-Copy-4" fill="#000000" fill-rule="nonzero"></path>
        <path d="M13.4485594,12.9 C13.7799302,12.9 14.0485594,13.1686292 14.0485594,13.5 C14.0485594,13.7982338 13.8309697,14.0456468 13.5458825,14.092147 L13.4485594,14.1 L5.86008453,14.1 C5.52871368,14.1 5.26008453,13.8313708 5.26008453,13.5 C5.26008453,13.2017662 5.47767415,12.9543532 5.76276142,12.907853 L5.86008453,12.9 L13.4485594,12.9 Z" id="Path-5-Copy-3" fill="#000000" fill-rule="nonzero"></path>
    </g>
</svg>