<?xml version="1.0" encoding="UTF-8"?>
<svg width="16px" height="16px" viewBox="0 0 16 16" version="1.1" xmlns="http://www.w3.org/2000/svg" xmlns:xlink="http://www.w3.org/1999/xlink">
    <title>toolbarButton-editorFreeText</title>
    <g id="toolbarButton-editorFreeText" stroke="none" stroke-width="1" fill="none" fill-rule="evenodd">
        <path d="M2.00090072,10.8289758 L2,12 C2,12.5522847 2.44771525,13 3,13 L3,13 L13,13 C13.5522847,13 14,12.5522847 14,12 L14,12 L14.0000889,10.8293257 C14.3128427,10.9398572 14.6493978,11 15,11 C15.0670403,11 15.1335671,10.997801 15.199512,10.9934712 L15.2,12 C15.2,13.2150264 14.2150264,14.2 13,14.2 L13,14.2 L3,14.2 C1.78497355,14.2 0.8,13.2150264 0.8,12 L0.8,12 L0.800353006,10.9934623 C0.86634214,10.997798 0.932913916,11 1,11 C1.35097203,11 1.6878673,10.9397302 2.00090072,10.8289758 Z M13,1.8 C14.2150264,1.8 15.2,2.78497355 15.2,4 L15.2,4 L15.199512,5.00652883 C15.1335671,5.00219901 15.0670403,5 15,5 C14.6493978,5 14.3128427,5.06014282 14.0000889,5.17067428 L14,4 C14,3.44771525 13.5522847,3 13,3 L13,3 L3,3 C2.44771525,3 2,3.44771525 2,4 L2,4 L2.00090072,5.17102423 C1.6878673,5.06026977 1.35097203,5 1,5 C0.932913916,5 0.86634214,5.00220201 0.800353006,5.0065377 L0.8,4 C0.8,2.78497355 1.78497355,1.8 3,1.8 L3,1.8 Z" id="Combined-Shape" fill="#000000" fill-rule="nonzero"></path>
        <circle id="Oval-Copy-2" fill="#000000" cx="1" cy="8" r="1"></circle>
        <circle id="Oval-Copy-3" fill="#000000" cx="15" cy="8" r="1"></circle>
        <path d="M7.99674664,4.5 C8.43920293,4.5 8.7450183,4.75131996 8.90117934,5.25395987 L8.90117934,5.25395987 L10.5668971,10.4355861 C10.6254575,10.6277719 10.6514843,10.7682154 10.6514843,10.8864836 C10.6514843,11.2634636 10.4302562,11.5 10.0788939,11.5 C9.78609191,11.5 9.59089061,11.3373812 9.48678325,10.9234424 L9.48678325,10.9234424 L9.08987393,9.5781415 L6.92313949,9.5781415 L6.51972346,10.9234424 C6.4156161,11.3373812 6.2204148,11.5 5.92761285,11.5 C5.57625051,11.5 5.35502237,11.2634636 5.35502237,10.8864836 C5.35502237,10.7682154 5.38104921,10.6277719 5.4396096,10.4355861 L5.4396096,10.4355861 L7.10532737,5.25395987 C7.26148841,4.75131996 7.55429036,4.5 7.99674664,4.5 Z M8.03578691,6.21505088 L7.9707198,6.21505088 L7.1899146,8.72870916 L8.81659211,8.72870916 L8.03578691,6.21505088 Z" id="Combined-Shape" fill="#000000"></path>
    </g>
</svg>